<svg xmlns="http://www.w3.org/2000/svg" xmlns:xlink="http://www.w3.org/1999/xlink" width="500" zoomAndPan="magnify" viewBox="0 0 375 374.999991" height="500" preserveAspectRatio="xMidYMid meet" version="1.0"><defs><clipPath id="d9ae143c90"><path d="M 0 45 L 374.90625 45 L 374.90625 308.242188 L 0 308.242188 Z M 0 45 " clip-rule="nonzero"/></clipPath></defs><rect x="-37.5" width="450" fill="#ffffff" y="-37.499999" height="449.999989" fill-opacity="1"/><rect x="-37.5" width="450" fill="#ffffff" y="-37.499999" height="449.999989" fill-opacity="1"/><g clip-path="url(#d9ae143c90)"><path fill="#06b6d4" d="M 128.023438 276.484375 C 128.023438 282.097656 123.472656 286.695312 117.804688 286.695312 C 112.1875 286.695312 107.582031 282.15625 107.582031 276.484375 C 107.582031 270.871094 112.125 266.273438 117.804688 266.273438 C 123.472656 266.273438 128.023438 270.820312 128.023438 276.484375 Z M 117.859375 298.816406 C 105.558594 298.816406 95.507812 288.832031 95.507812 276.484375 C 95.507812 264.140625 105.503906 254.15625 117.859375 254.15625 C 130.15625 254.15625 140.207031 264.140625 140.207031 276.484375 C 140.207031 288.832031 130.15625 298.816406 117.859375 298.816406 Z M 117.859375 244.785156 C 100.335938 244.785156 86.128906 259.03125 86.128906 276.484375 C 86.128906 293.992188 100.398438 308.1875 117.859375 308.1875 C 135.378906 308.1875 149.585938 293.9375 149.585938 276.484375 C 149.585938 258.980469 135.378906 244.785156 117.859375 244.785156 Z M 150.878906 238.214844 C 141.554688 229.6875 130.605469 225.140625 119.152344 225.140625 C 112.917969 224.917969 107.019531 226.210938 101.570312 228.960938 C 96.011719 230.863281 91.125 234.011719 87.027344 238.390625 C 82.652344 242.484375 79.503906 247.367188 77.59375 252.921875 C 74.785156 258.359375 73.492188 264.308594 73.773438 270.652344 C 73.773438 270.761719 73.773438 270.871094 73.773438 270.988281 L 40.023438 270.988281 C 38.335938 268.6875 34.632812 262.117188 28.453125 248.375 C 23.230469 236.703125 19.074219 226.210938 18.570312 224.410156 C 14.414062 209.769531 11.550781 192.820312 11.492188 176.265625 L 42.160156 176.265625 L 42.160156 182.445312 C 42.160156 191.753906 49.738281 199.277344 59.003906 199.277344 L 147.625 199.277344 C 156.945312 199.277344 164.472656 191.699219 164.472656 182.445312 L 164.472656 176.265625 L 192.945312 176.265625 L 192.945312 235.019531 C 192.945312 249.664062 204.90625 261.617188 219.566406 261.617188 L 251.234375 261.617188 C 265.894531 261.617188 277.855469 249.664062 277.855469 235.019531 L 277.855469 176.214844 L 329.1875 176.214844 C 325.480469 201.746094 316.382812 228.289062 307.734375 253.480469 L 306.496094 257.066406 C 303.746094 265.039062 296.445312 270.480469 288.078125 270.871094 C 240.789062 270.871094 187.441406 270.871094 164.246094 270.871094 C 164.246094 270.59375 164.246094 270.316406 164.246094 270.03125 C 163.679688 256.957031 158.910156 245.621094 150.878906 238.214844 Z M 155.089844 145.40625 L 155.089844 182.445312 C 155.089844 186.539062 151.722656 189.902344 147.625 189.902344 L 59.003906 189.902344 C 54.90625 189.902344 51.539062 186.539062 51.539062 182.445312 L 51.539062 145.40625 C 51.539062 141.308594 54.90625 137.945312 59.003906 137.945312 L 147.625 137.945312 C 151.78125 137.945312 155.089844 141.253906 155.089844 145.40625 Z M 266.90625 136.488281 L 266.90625 235.019531 C 266.90625 243.601562 259.886719 250.617188 251.292969 250.617188 L 219.621094 250.617188 C 211.027344 250.617188 204.007812 243.601562 204.007812 235.019531 L 204.007812 136.488281 C 204.007812 127.898438 211.027344 120.890625 219.621094 120.890625 L 251.292969 120.890625 C 259.886719 120.890625 266.90625 127.898438 266.90625 136.488281 Z M 34.632812 113.761719 C 46.59375 104.167969 60.242188 95.976562 74.785156 89.070312 C 75.234375 88.90625 75.632812 88.734375 76.019531 88.507812 C 94.609375 79.757812 114.597656 73.082031 134.542969 68.085938 C 134.761719 68.027344 135.042969 67.96875 135.265625 67.917969 C 161.101562 61.519531 186.769531 58.09375 208.777344 57.085938 C 231.246094 56.023438 263.703125 58.601562 290.605469 76.949219 C 324.636719 100.125 333.230469 131.492188 330.535156 165.273438 L 277.914062 165.273438 L 277.914062 136.542969 C 277.914062 121.898438 265.949219 109.945312 251.292969 109.945312 L 219.621094 109.945312 C 204.964844 109.945312 193 121.898438 193 136.542969 L 193 165.273438 L 164.527344 165.273438 L 164.527344 145.464844 C 164.527344 136.152344 156.945312 128.632812 147.679688 128.632812 L 59.003906 128.632812 C 49.683594 128.632812 42.160156 136.203125 42.160156 145.464844 L 42.160156 165.273438 L 11.832031 165.273438 C 13.34375 144.453125 19.972656 125.429688 34.632812 113.761719 Z M 95 62.308594 C 102.359375 59.386719 111.003906 59.050781 118.472656 61.015625 C 105.953125 64.605469 93.484375 68.925781 81.46875 74.03125 C 84.785156 67.632812 90.285156 64.160156 95 62.308594 Z M 374.84375 256.121094 C 374.84375 253.089844 372.371094 250.617188 369.339844 250.617188 C 366.308594 250.617188 363.835938 253.089844 363.835938 256.121094 L 363.835938 270.933594 C 352.378906 270.933594 333.285156 270.933594 311.160156 270.933594 C 313.6875 267.957031 315.710938 264.535156 317 260.71875 L 318.230469 257.128906 C 328.960938 225.875 341.148438 190.410156 341.933594 157.359375 C 342.890625 118.472656 328.121094 89.179688 296.78125 67.804688 C 267.355469 47.773438 232.367188 44.914062 208.222656 46.03125 C 186.203125 47.042969 160.710938 50.410156 134.878906 56.640625 C 123.304688 48.222656 105.332031 46.257812 90.847656 52.035156 C 78.324219 57.03125 70.121094 67.1875 67.929688 80.09375 C 53.386719 87.160156 39.738281 95.464844 27.664062 105.121094 C 19.351562 111.738281 12.785156 120.605469 8.238281 131.328125 C 4.25 140.699219 1.777344 151.523438 0.765625 163.589844 C -1.363281 190.070312 4.25 214.929688 7.789062 227.332031 C 8.6875 230.476562 14.128906 243.828125 19.527344 255.667969 C 22.722656 262.625 25.480469 268.238281 27.78125 272.28125 C 30.753906 277.550781 33.617188 281.984375 37.890625 281.984375 C 38.054688 281.984375 38.226562 281.984375 38.390625 281.984375 L 79.78125 281.984375 C 81.410156 281.984375 82.925781 281.253906 83.992188 280.023438 C 85.0625 278.785156 85.507812 277.160156 85.230469 275.585938 C 84.945312 273.792969 84.726562 271.945312 84.664062 270.144531 C 84.5 265.601562 85.398438 261.507812 87.480469 257.632812 C 87.640625 257.351562 87.757812 257.066406 87.816406 256.792969 C 89.160156 252.746094 91.355469 249.328125 94.550781 246.355469 C 94.660156 246.242188 94.722656 246.183594 94.835938 246.074219 C 97.8125 242.875 101.234375 240.6875 105.28125 239.339844 C 105.558594 239.226562 105.839844 239.113281 106.125 239.003906 C 110.050781 236.929688 114.152344 236.03125 118.644531 236.199219 C 118.703125 236.199219 118.753906 236.199219 118.871094 236.199219 C 127.574219 236.199219 136 239.734375 143.238281 246.410156 C 151.214844 253.703125 152.847656 264.757812 153.125 270.652344 C 153.183594 272.390625 153.070312 274.074219 152.847656 275.703125 C 152.847656 275.753906 152.847656 275.753906 152.847656 275.8125 C 152.847656 275.921875 152.847656 276.039062 152.789062 276.148438 C 152.789062 276.257812 152.789062 276.320312 152.789062 276.433594 C 152.789062 276.484375 152.789062 276.542969 152.789062 276.597656 C 152.789062 276.65625 152.789062 276.710938 152.789062 276.769531 C 152.789062 276.878906 152.789062 276.933594 152.789062 277.046875 C 152.789062 277.160156 152.789062 277.269531 152.847656 277.382812 C 152.847656 277.441406 152.847656 277.550781 152.902344 277.605469 C 152.902344 277.71875 152.960938 277.832031 152.960938 278.003906 C 152.960938 278.058594 153.015625 278.113281 153.015625 278.167969 C 153.070312 278.277344 153.125 278.449219 153.125 278.5625 C 153.125 278.613281 153.183594 278.675781 153.183594 278.675781 C 153.238281 278.839844 153.296875 278.960938 153.410156 279.125 C 153.410156 279.125 153.410156 279.179688 153.464844 279.179688 C 153.574219 279.347656 153.632812 279.515625 153.746094 279.683594 C 153.746094 279.683594 153.746094 279.742188 153.800781 279.742188 C 153.910156 279.855469 154.027344 280.023438 154.140625 280.132812 C 154.140625 280.132812 154.140625 280.132812 154.140625 280.191406 C 154.191406 280.242188 154.191406 280.242188 154.25 280.300781 C 154.308594 280.417969 154.417969 280.46875 154.527344 280.578125 C 154.585938 280.636719 154.644531 280.695312 154.703125 280.753906 C 154.8125 280.804688 154.863281 280.917969 154.980469 280.972656 C 155.039062 281.03125 155.089844 281.089844 155.148438 281.089844 C 155.257812 281.140625 155.320312 281.199219 155.429688 281.253906 C 155.484375 281.3125 155.542969 281.3125 155.597656 281.367188 C 155.710938 281.425781 155.820312 281.476562 155.933594 281.535156 C 155.992188 281.535156 156.046875 281.59375 156.105469 281.59375 C 156.214844 281.648438 156.328125 281.707031 156.496094 281.761719 C 156.550781 281.761719 156.609375 281.820312 156.664062 281.820312 C 156.777344 281.871094 156.945312 281.871094 157.0625 281.929688 C 157.113281 281.929688 157.171875 281.929688 157.222656 281.984375 C 157.398438 282.042969 157.507812 282.042969 157.675781 282.042969 C 157.734375 282.042969 157.785156 282.042969 157.785156 282.042969 C 157.953125 282.042969 158.125 282.042969 158.351562 282.097656 L 268.3125 282.097656 L 268.3125 301.90625 C 268.3125 304.9375 270.785156 307.402344 273.816406 307.402344 C 276.847656 307.402344 279.316406 304.9375 279.316406 301.90625 L 279.316406 282.097656 L 287.121094 282.097656 C 287.574219 282.097656 287.964844 282.097656 288.414062 282.097656 C 324.1875 282.097656 356.363281 282.097656 369.285156 282.097656 C 369.453125 282.097656 369.679688 282.097656 369.847656 282.042969 C 370.96875 281.929688 371.925781 281.476562 372.765625 280.863281 C 372.765625 280.863281 372.765625 280.863281 372.820312 280.863281 C 372.933594 280.753906 373.046875 280.695312 373.15625 280.578125 L 373.21875 280.527344 C 373.328125 280.417969 373.382812 280.359375 373.492188 280.242188 C 373.550781 280.191406 373.550781 280.191406 373.605469 280.132812 C 373.664062 280.023438 373.777344 279.964844 373.832031 279.855469 C 373.886719 279.796875 373.886719 279.742188 373.949219 279.683594 C 374 279.570312 374.058594 279.515625 374.113281 279.40625 C 374.167969 279.347656 374.167969 279.292969 374.222656 279.234375 C 374.285156 279.179688 374.285156 279.070312 374.339844 279.011719 C 374.394531 278.960938 374.394531 278.839844 374.449219 278.785156 C 374.503906 278.730469 374.503906 278.613281 374.558594 278.5625 C 374.621094 278.449219 374.621094 278.394531 374.675781 278.277344 C 374.675781 278.226562 374.730469 278.113281 374.730469 278.058594 C 374.730469 277.941406 374.785156 277.832031 374.785156 277.777344 C 374.785156 277.71875 374.785156 277.605469 374.84375 277.554688 C 374.84375 277.441406 374.894531 277.332031 374.894531 277.269531 C 374.894531 277.160156 374.894531 277.105469 374.894531 276.996094 C 374.894531 276.878906 374.894531 276.820312 374.894531 276.710938 L 374.894531 256.121094 Z M 140.097656 175.59375 C 139.984375 175.652344 139.707031 175.765625 139.3125 175.765625 L 122.519531 175.765625 L 122.519531 151.691406 L 139.3125 151.691406 C 139.707031 151.691406 139.933594 151.808594 140.097656 151.859375 Z M 139.367188 142.375 L 117.859375 142.375 C 115.277344 142.375 113.144531 144.453125 113.144531 147.089844 L 113.144531 180.535156 C 113.144531 183.117188 115.21875 185.246094 117.859375 185.246094 L 139.367188 185.246094 C 144.988281 185.246094 149.53125 181.089844 149.53125 175.988281 L 149.53125 151.691406 C 149.53125 146.53125 144.988281 142.375 139.367188 142.375 Z M 95.453125 175.765625 L 67.316406 175.765625 C 66.925781 175.765625 66.699219 175.652344 66.527344 175.59375 L 66.527344 151.917969 C 66.644531 151.859375 66.925781 151.746094 67.316406 151.746094 L 95.453125 151.746094 Z M 100.113281 142.375 L 67.261719 142.375 C 61.644531 142.375 57.089844 146.53125 57.089844 151.636719 L 57.089844 175.929688 C 57.089844 181.039062 61.644531 185.195312 67.261719 185.195312 L 100.113281 185.195312 C 102.695312 185.195312 104.832031 183.117188 104.832031 180.480469 L 104.832031 147.035156 C 104.832031 144.453125 102.746094 142.375 100.113281 142.375 Z M 247.695312 154.5 C 247.695312 161.234375 242.195312 166.734375 235.457031 166.734375 C 228.71875 166.734375 223.210938 161.234375 223.210938 154.5 C 223.210938 147.761719 228.71875 142.265625 235.457031 142.265625 C 242.195312 142.265625 247.695312 147.761719 247.695312 154.5 Z M 212.148438 154.5 C 212.148438 167.292969 222.597656 177.730469 235.402344 177.730469 C 248.203125 177.730469 258.648438 167.292969 258.648438 154.5 C 258.648438 141.703125 248.261719 131.210938 235.457031 131.210938 C 222.65625 131.210938 212.148438 141.648438 212.148438 154.5 " fill-opacity="1" fill-rule="nonzero"/></g></svg>